# Max2Obj Version 4.0 Mar 10th, 2001
#
mtllib ./Desert_rock_09.mtl
g
# object box52 to come ...
#
v  0.039145 -0.373444 0.064616
v  0.196648 -0.348665 0.014776
v  0.137519 -0.410366 -0.047846
v  0.276476 -0.303984 -0.047846
v  0.169206 -0.132205 0.099504
v  0.170730 -0.172388 0.132564
v  0.100253 -0.177867 0.067402
v  0.335887 -0.071389 -0.047846
v  0.303544 -0.178232 -0.047846
v  0.336264 -0.173590 0.001028
v  0.105551 -0.111686 -0.047846
v  0.056133 -0.226992 0.038221
v  0.103498 -0.217511 -0.047846
v  0.265155 -0.064527 0.011039
v  0.291733 -0.176405 0.080024
v  0.266979 -0.067140 0.049162
v  0.160765 -0.102410 0.090180
v  0.131403 -0.098082 0.053243
v  0.153311 -0.057774 0.012966
v  0.246122 -0.029557 -0.047846
v  0.116340 -0.259982 0.167693
v  0.076625 -0.262400 0.087035
v  0.015442 -0.376440 -0.047846
v  0.189415 -0.312569 0.109001
v  0.081283 -0.345673 0.122821
v  0.038543 -0.422320 0.019233
v  -0.413353 -0.020542 0.191094
v  -0.408034 -0.017035 0.066253
v  -0.540232 0.041573 0.202973
v  -0.299979 0.064791 0.176490
v  -0.490216 0.235432 0.209881
v  -0.367367 0.161664 0.212090
v  -0.531925 0.137147 0.108539
v  -0.301400 0.338768 -0.062861
v  -0.244368 0.080592 -0.062861
v  -0.177572 0.107573 0.065458
v  -0.066599 0.197543 0.057829
v  -0.135870 0.155234 -0.062861
v  0.012651 0.358861 0.050843
v  -0.016041 0.425662 -0.062861
v  -0.282245 0.436876 0.056374
v  -0.387578 0.109323 -0.062861
v  -0.046099 0.353379 0.072076
v  -0.185780 0.384683 0.118775
v  -0.108913 0.215224 0.130253
v  -0.048668 0.236433 0.180236
v  -0.283946 0.080074 0.278283
v  -0.143504 0.148314 0.224057
v  -0.179296 0.112596 0.155720
# 49 vertices

vt  1.363549 0.806968 0.000000
vt  1.254597 0.867967 0.000000
vt  1.353621 0.944609 0.000000
vt  1.163746 0.944609 0.000000
vt  0.359907 1.150853 0.000000
vt  0.316124 1.110392 0.000000
vt  0.273594 1.190142 0.000000
vt  0.875018 0.944609 0.000000
vt  1.010259 0.944609 0.000000
vt  0.988187 0.884793 0.000000
vt  0.349742 1.331193 0.000000
vt  0.196283 1.225857 0.000000
vt  0.231298 1.331193 0.000000
vt  1.485346 -0.691799 0.000000
vt  1.378831 -0.711947 0.000000
vt  1.408185 -0.596227 0.000000
vt  1.494882 -0.539986 0.000000
vt  0.274223 0.862437 0.000000
vt  0.412711 0.894825 0.000000
vt  0.438198 0.855549 0.000000
vt  1.642525 -0.636088 0.000000
vt  1.658646 -0.685308 0.000000
vt  1.500852 -0.654108 0.000000
vt  1.485346 -0.691799 0.000000
vt  -0.422621 1.661193 0.000000
vt  -0.454511 1.557407 0.000000
vt  -0.457984 1.678974 0.000000
vt  0.378204 1.207471 0.000000
vt  0.388591 1.162264 0.000000
vt  0.349742 1.331193 0.000000
vt  0.196283 1.225857 0.000000
vt  1.639395 -0.603429 0.000000
vt  1.642525 -0.636088 0.000000
vt  1.500852 -0.654108 0.000000
vt  1.655688 -0.544603 0.000000
vt  0.434246 1.256766 0.000000
vt  0.513550 1.331193 0.000000
vt  1.477504 -0.778099 0.000000
vt  0.190832 1.067397 0.000000
vt  0.167608 1.166114 0.000000
vt  1.163746 0.944609 0.000000
vt  0.009466 1.331193 0.000000
vt  1.014342 0.788110 0.000000
vt  0.988187 0.884793 0.000000
vt  1.218300 0.752647 0.000000
vt  1.014342 0.788110 0.000000
vt  1.254597 0.867967 0.000000
vt  0.013887 0.058590 0.000000
vt  0.042595 -0.061701 0.000000
vt  -0.161382 -0.049144 0.000000
vt  -0.123755 0.037105 0.000000
vt  0.077648 1.122316 0.000000
vt  0.025049 1.193552 0.000000
vt  0.009466 1.331193 0.000000
vt  0.009466 1.331193 0.000000
vt  0.196283 1.225857 0.000000
vt  1.378831 -0.407106 0.000000
vt  1.473451 -0.349387 0.000000
vt  1.489455 -0.479100 0.000000
vt  1.700382 -0.478060 0.000000
vt  1.605931 -0.347866 0.000000
vt  1.387093 0.033148 0.000000
vt  1.337738 -0.048949 0.000000
vt  1.234135 0.033149 0.000000
vt  -0.029476 1.249096 0.000000
vt  1.418073 0.862512 0.000000
vt  1.574169 1.434913 0.000000
vt  1.697729 1.304611 0.000000
vt  1.412093 1.313214 0.000000
vt  1.268114 -0.750079 0.000000
vt  1.096064 -0.658828 0.000000
vt  1.297650 -0.585766 0.000000
vt  -0.348992 0.461202 0.000000
vt  -0.411247 0.657590 0.000000
vt  -0.110656 0.622603 0.000000
vt  -0.391737 0.826125 0.000000
vt  -0.188343 0.810262 0.000000
vt  0.305323 0.068951 0.000000
vt  0.691073 0.315378 0.000000
vt  0.458618 -0.076751 0.000000
vt  1.087638 -0.329984 0.000000
vt  0.950145 -0.467131 0.000000
vt  0.778279 -0.382521 0.000000
vt  0.920341 -0.264951 0.000000
vt  0.999601 1.489499 0.000000
vt  0.902258 1.304611 0.000000
vt  0.643894 1.312013 0.000000
vt  0.574435 1.493001 0.000000
vt  0.833039 0.143950 0.000000
vt  1.279919 -0.338858 0.000000
vt  1.297650 -0.585766 0.000000
vt  0.157941 0.129747 0.000000
vt  0.338712 0.315378 0.000000
vt  -0.735359 1.515635 0.000000
vt  -0.522647 1.485294 0.000000
vt  -0.422621 1.335705 0.000000
vt  -0.825934 1.343998 0.000000
vt  -0.764818 0.441887 0.000000
vt  -0.819157 0.589918 0.000000
vt  0.399391 1.605373 0.000000
vt  0.037958 1.392079 0.000000
vt  -0.029476 1.605373 0.000000
vt  1.658646 -0.685308 0.000000
vt  1.612494 -0.741139 0.000000
vt  0.811157 -0.473112 0.000000
vt  0.707707 -0.513788 0.000000
vt  0.710578 -0.302912 0.000000
vt  1.664248 -0.075488 0.000000
vt  1.552647 0.020240 0.000000
vt  1.674265 0.104266 0.000000
vt  0.845834 -0.641057 0.000000
vt  0.924150 -0.580972 0.000000
vt  1.039646 -0.778099 0.000000
vt  1.447978 -0.076751 0.000000
vt  0.950145 -0.467131 0.000000
vt  -0.639873 0.884941 0.000000
vt  -0.423560 0.824902 0.000000
vt  -0.825934 0.880167 0.000000
vt  -0.714827 1.678974 0.000000
vt  -0.735359 1.515635 0.000000
vt  -0.825934 1.343998 0.000000
vt  -0.817621 1.522277 0.000000
vt  1.637418 -0.263827 0.000000
vt  1.378831 -0.266686 0.000000
vt  1.591090 -0.186482 0.000000
vt  0.756380 1.667725 0.000000
vt  0.979637 1.611266 0.000000
vt  0.781485 1.562882 0.000000
vt  0.584864 1.553886 0.000000
vt  0.574435 1.683464 0.000000
vt  0.305323 0.068951 0.000000
vt  0.458618 -0.076751 0.000000
vt  0.172115 -0.066818 0.000000
vt  1.351208 1.486917 0.000000
vt  1.286232 1.304611 0.000000
vt  1.060487 1.480401 0.000000
# 136 texture vertices

vn  -0.329324 -0.701955 0.631510
vn  0.584328 -0.709780 0.393412
vn  0.345190 -0.902417 0.257852
vn  0.819453 -0.568692 0.071312
vn  -0.061594 0.424694 0.903239
vn  -0.134525 0.532019 0.835977
vn  -0.738293 0.415088 0.531625
vn  0.859575 0.439050 0.261469
vn  0.821214 -0.212469 -0.529589
vn  0.964502 -0.149273 0.217837
vn  -0.854814 0.516202 -0.053182
vn  -0.946131 0.312833 0.083491
vn  -0.861893 0.237177 -0.448204
vn  0.506861 0.749014 0.426697
vn  0.730340 0.061860 0.680277
vn  0.284705 0.760913 0.583056
vn  -0.341309 0.529079 0.776907
vn  -0.435586 0.791360 0.428969
vn  -0.429917 0.870939 0.237983
vn  0.055536 0.920002 0.387960
vn  -0.274016 0.104174 0.956066
vn  -0.878069 0.217776 0.426108
vn  -0.997209 -0.071016 -0.023031
vn  0.474735 -0.687186 0.549911
vn  -0.449781 -0.446818 0.773337
vn  -0.388333 -0.900986 0.193444
vn  0.137194 -0.859830 0.491803
vn  -0.010317 -0.963774 -0.266521
vn  -0.554965 -0.391489 0.733997
vn  0.195223 -0.792389 0.577935
vn  -0.608379 0.571704 0.550482
vn  -0.093328 0.147316 0.984677
vn  -0.903134 0.055523 -0.425754
vn  -0.651265 0.579819 -0.489555
vn  0.365030 -0.930264 0.036902
vn  0.510776 -0.859427 0.022196
vn  0.753454 -0.593149 0.283693
vn  0.778522 -0.563463 -0.276431
vn  0.954418 -0.025430 0.297386
vn  0.411675 0.911220 -0.014236
vn  -0.145624 0.976545 0.158597
vn  -0.471727 -0.674978 -0.567344
vn  0.605694 0.512440 0.608720
vn  0.153240 0.617198 0.771741
vn  0.793714 -0.608207 0.010134
vn  0.692578 0.082654 0.716592
vn  0.045308 -0.811818 0.582150
vn  0.714420 -0.434307 0.548617
vn  0.582730 -0.807631 0.090317
# 49 vertex normals

g box52
usemtl moon_boulder_01
s 1
f 1/1/1 3/3/3 2/2/2
f 2/2/2 3/3/3 4/4/4
f 5/5/5 7/7/7 6/6/6
f 8/8/8 10/10/10 9/9/9
f 11/11/11 13/13/13 12/12/12
f 14/14/14 10/16/10 8/15/8
f 10/16/10 14/14/14 15/17/15
f 15/18/15 14/20/14 16/19/16
f 17/21/17 16/23/16 18/22/18
f 14/24/14 18/22/18 16/23/16
f 5/25/5 17/27/17 7/26/7
f 18/28/18 7/7/7 17/29/17
f 18/28/18 11/30/11 7/7/7
f 12/31/12 7/7/7 11/30/11
f 5/32/5 16/34/16 17/33/17
f 15/17/15 5/32/5 6/35/6
f 5/32/5 15/17/15 16/34/16
f 19/36/19 20/37/20 11/30/11
f 19/36/19 11/30/11 18/28/18
f 8/15/8 20/38/20 14/14/14
f 21/39/21 7/7/7 22/40/22
f 7/7/7 21/39/21 6/6/6
f 7/7/7 12/31/12 22/40/22
f 9/9/9 10/10/10 4/41/4
f 23/42/23 12/12/12 13/13/13
f 2/2/2 10/44/10 15/43/15
f 10/44/10 2/2/2 4/4/4
f 24/45/24 2/47/2 15/46/15
f 24/48/24 1/50/1 2/49/2
f 1/50/1 24/48/24 25/51/25
f 22/40/22 25/52/25 21/39/21
f 25/52/25 22/40/22 1/53/1
f 22/40/22 23/54/23 1/53/1
f 23/55/23 22/40/22 12/56/12
f 25/57/25 24/59/24 21/58/21
f 15/60/15 21/58/21 24/59/24
f 21/58/21 15/60/15 6/61/6
f 23/62/23 3/64/3 26/63/26
f 1/53/1 23/54/23 26/65/26
f 26/66/26 3/3/3 1/1/1
f 27/67/27 29/69/29 28/68/28
f 27/70/27 28/72/28 30/71/30
f 31/73/31 29/75/29 32/74/32
f 32/74/32 29/75/29 30/76/30
f 30/76/30 29/75/29 27/77/27
f 33/78/33 31/80/31 34/79/34
f 35/81/35 37/83/37 36/82/36
f 37/83/37 35/81/35 38/84/38
f 38/85/38 39/87/39 37/86/37
f 39/87/39 38/85/38 40/88/40
f 31/80/31 41/89/41 34/79/34
f 42/90/42 36/82/36 28/91/28
f 36/82/36 42/90/42 35/81/35
f 33/78/33 42/93/42 28/92/28
f 42/93/42 33/78/33 34/79/34
f 43/94/43 41/96/41 44/95/44
f 41/96/41 43/94/43 40/97/40
f 31/73/31 44/99/44 41/98/41
f 44/99/44 31/73/31 32/74/32
f 40/100/40 34/102/34 41/101/41
f 14/14/14 20/38/20 18/103/18
f 18/103/18 20/38/20 19/104/19
f 45/105/45 43/107/43 46/106/46
f 47/108/47 32/110/32 30/109/30
f 48/111/48 47/113/47 49/112/49
f 30/109/30 49/114/49 47/108/47
f 46/106/46 48/111/48 45/105/45
f 49/112/49 45/105/45 48/111/48
f 30/71/30 28/72/28 49/112/49
f 36/115/36 49/112/49 28/72/28
f 48/116/48 32/74/32 47/117/47
f 46/118/46 32/74/32 48/116/48
f 32/74/32 46/118/46 44/99/44
f 46/119/46 43/94/43 44/95/44
f 43/120/43 39/122/39 40/121/40
f 39/123/39 43/125/43 37/124/37
f 45/126/45 37/128/37 43/127/43
f 37/128/37 45/126/45 36/129/36
f 49/130/49 36/129/36 45/126/45
f 33/131/33 29/133/29 31/132/31
f 33/134/33 28/136/28 29/135/29
# 81 faces

g
