# Max2Obj Version 4.0 Mar 10th, 2001
#
mtllib ./Desert_rock_04.mtl
g
# object box52 to come ...
#
v  -1.994173 1.957984 -0.114708
v  -0.850082 2.506643 0.083261
v  -1.838634 1.595829 0.695182
v  0.547830 -2.103381 1.789472
v  -1.247987 -1.050145 1.408059
v  0.082136 -1.062700 1.706302
v  0.883026 -0.577425 1.739387
v  1.404987 -0.911684 1.580027
v  0.788141 1.048100 1.534719
v  1.856729 0.204805 1.403114
v  0.330949 1.779022 0.970136
v  -2.298509 0.227503 1.761041
v  -2.344072 0.143658 1.415158
v  -2.301697 -0.982755 1.859174
v  -2.186535 -0.678516 2.239823
v  -1.710310 -1.660083 2.213472
v  -1.675993 -1.374801 2.645061
v  0.878015 -1.853636 3.233676
v  1.561927 -0.891720 2.723953
v  1.482323 -0.764804 2.300413
v  0.835990 -1.836239 2.838797
v  -0.238544 -2.494520 2.935799
v  -0.207044 -2.339179 3.435533
v  -0.813510 -1.941029 3.109181
v  0.111762 -1.048090 2.722594
v  -1.878328 -0.392942 1.010082
v  -2.154450 -0.363973 2.371137
v  -0.035940 -0.880858 2.930672
v  -0.555814 0.268017 1.853284
v  -0.913494 -1.333294 3.156872
v  -1.693017 -0.993283 2.737395
v  -2.497075 1.140444 0.179830
v  -1.907037 -0.111894 0.709883
v  -0.988638 -1.010660 0.973008
v  0.661287 -1.661924 1.402684
v  1.748579 -0.480089 1.178103
v  2.007650 0.598042 1.047289
v  0.844523 2.098509 0.435403
v  2.518847 -0.415209 0.935411
v  1.092615 -2.148986 1.268871
v  2.317925 -1.109284 1.051185
v  -1.066454 -1.075611 0.652727
v  2.489705 -0.166875 0.598041
v  2.201297 -1.456137 0.666062
v  2.001780 -0.927792 0.706800
v  2.193733 -0.100456 0.637349
v  1.981104 1.927615 0.323993
v  0.939739 -1.574578 0.681520
v  2.474226 -0.188041 -0.076538
v  2.255254 -1.556657 -0.034691
v  -0.617920 -1.188506 0.035672
v  0.964356 -1.812832 0.078884
v  -2.074424 1.071837 -0.059618
v  -1.506385 -0.135393 0.012344
v  -1.805159 -0.258175 0.509331
v  -0.527746 2.704135 -0.376429
v  1.293678 2.845054 -0.376429
v  -2.340568 -0.000451 -0.376429
v  -2.174436 1.904504 -0.376429
v  2.533377 -0.191838 -0.376429
v  2.311216 -1.580381 -0.376429
v  -1.014717 -2.653300 -0.376429
v  -1.657559 -1.521176 -0.376429
v  0.538014 -2.335042 -0.376429
# 64 vertices

vt  -0.425361 2.209971 0.000000
vt  -0.050753 2.145151 0.000000
vt  -0.374433 1.944791 0.000000
vt  0.790936 0.375497 0.000000
vt  0.873499 -0.301154 0.000000
vt  0.612556 0.047563 0.000000
vt  0.327157 0.159636 0.000000
vt  0.310482 0.361896 0.000000
vt  -0.077110 -0.187949 0.000000
vt  -0.069865 0.257706 0.000000
vt  1.297189 -1.267146 0.000000
vt  0.937243 -1.457763 0.000000
vt  0.603625 -1.407189 0.000000
vt  0.972310 0.033378 0.000000
vt  1.540009 0.017797 0.000000
vt  1.489175 -0.087063 0.000000
vt  1.866264 -0.209406 0.000000
vt  1.868644 -0.049870 0.000000
vt  2.111192 -0.260912 0.000000
vt  2.128969 -0.092452 0.000000
vt  -1.425534 1.812525 0.000000
vt  -1.046493 1.995543 0.000000
vt  -0.931307 1.924860 0.000000
vt  -1.348258 0.813037 0.000000
vt  -1.420946 1.198868 0.000000
vt  -1.321617 1.281833 0.000000
vt  2.230008 2.266595 0.000000
vt  1.588798 2.202869 0.000000
vt  1.485976 2.304784 0.000000
vt  2.244547 -0.742155 0.000000
vt  2.220936 -0.870018 0.000000
vt  1.872564 -0.811433 0.000000
vt  1.895366 -0.649075 0.000000
vt  1.689199 -0.740426 0.000000
vt  -0.063858 -1.216814 0.000000
vt  -0.268765 -1.336978 0.000000
vt  -0.048791 -0.827878 0.000000
vt  -0.396459 -0.935779 0.000000
vt  -0.231775 -0.487494 0.000000
vt  -0.798656 1.683561 0.000000
vt  -1.341652 1.752105 0.000000
vt  -0.931307 1.924860 0.000000
vt  -0.731767 0.936115 0.000000
vt  -1.028148 0.897672 0.000000
vt  -0.913590 1.244758 0.000000
vt  -0.618660 1.281833 0.000000
vt  1.540425 -0.301154 0.000000
vt  0.972310 0.033378 0.000000
vt  1.489175 -0.087063 0.000000
vt  1.866264 -0.209406 0.000000
vt  1.610164 1.673014 0.000000
vt  1.485976 1.836863 0.000000
vt  2.121472 1.824051 0.000000
vt  1.302743 1.288676 0.000000
vt  0.869087 1.394294 0.000000
vt  0.850360 1.697790 0.000000
vt  1.387165 1.696060 0.000000
vt  1.816504 0.048806 0.000000
vt  0.850360 1.883892 0.000000
vt  1.365906 1.871067 0.000000
vt  0.854854 1.796601 0.000000
vt  -0.268765 -1.336978 0.000000
vt  -0.461635 -1.278073 0.000000
vt  -0.466984 -0.954841 0.000000
vt  -0.396459 -0.935779 0.000000
vt  -0.560174 -1.507870 0.000000
vt  -0.674610 -1.457467 0.000000
vt  2.051788 0.010320 0.000000
vt  1.396000 -0.870342 0.000000
vt  2.088311 1.937372 0.000000
vt  1.485976 1.935674 0.000000
vt  1.507609 2.104058 0.000000
vt  -0.461635 -1.278073 0.000000
vt  -0.674610 -1.457467 0.000000
vt  -0.466984 -0.954841 0.000000
vt  -0.926296 -1.501503 0.000000
vt  -0.879633 -0.940584 0.000000
vt  2.409278 0.932411 0.000000
vt  1.859074 0.928587 0.000000
vt  1.874339 1.133275 0.000000
vt  -1.194302 -0.460938 0.000000
vt  -1.455579 -1.124244 0.000000
vt  -1.579329 -0.701878 0.000000
vt  -1.579329 2.094353 0.000000
vt  -1.565786 2.405805 0.000000
vt  -0.973863 2.115183 0.000000
vt  -0.105186 0.757114 0.000000
vt  0.092456 0.552434 0.000000
vt  -0.198029 0.551965 0.000000
vt  -0.178215 2.469232 0.000000
vt  0.260583 2.544849 0.000000
vt  -0.290204 2.394477 0.000000
vt  1.570598 0.180554 0.000000
vt  1.532588 0.341978 0.000000
vt  1.845279 0.333443 0.000000
vt  -1.118211 0.802590 0.000000
vt  -1.028148 0.897672 0.000000
vt  -0.731767 0.936115 0.000000
vt  0.033847 1.971817 0.000000
vt  0.086571 2.111436 0.000000
vt  0.651173 1.975251 0.000000
vt  0.972310 0.238792 0.000000
vt  1.633295 -0.401173 0.000000
vt  1.788870 -0.515566 0.000000
vt  1.396000 -0.487233 0.000000
vt  -1.453883 0.947024 0.000000
vt  -1.579329 0.796773 0.000000
vt  -1.558356 1.281833 0.000000
vt  2.003109 -0.416476 0.000000
vt  2.144464 -0.517327 0.000000
vt  0.603625 -1.407189 0.000000
vt  0.545073 -1.155870 0.000000
vt  1.183711 -1.126803 0.000000
vt  1.297189 -1.267146 0.000000
vt  1.012865 -0.700162 0.000000
vt  0.448398 -0.649739 0.000000
vt  0.595202 -0.456396 0.000000
vt  1.760264 0.954729 0.000000
vt  0.759847 1.017539 0.000000
vt  1.123771 1.101084 0.000000
vt  0.232592 1.156928 0.000000
vt  0.272558 0.947688 0.000000
vt  -0.231157 0.796833 0.000000
vt  -0.286205 1.069165 0.000000
vt  0.628099 0.488436 0.000000
vt  1.795004 -1.507870 0.000000
vt  2.501943 -1.306127 0.000000
vt  2.476464 -1.410996 0.000000
vt  -0.042743 1.288676 0.000000
vt  -0.461061 1.398813 0.000000
vt  -0.285746 1.457632 0.000000
vt  -0.017390 1.384705 0.000000
vt  0.648794 1.429471 0.000000
vt  0.718613 1.799269 0.000000
vt  -0.484384 1.813042 0.000000
vt  2.168177 0.488436 0.000000
vt  1.746037 0.510708 0.000000
vt  1.752967 0.731584 0.000000
vt  2.201090 0.717882 0.000000
vt  1.060242 0.600438 0.000000
vt  2.355081 -1.104086 0.000000
vt  1.845060 -1.315555 0.000000
vt  1.836999 -1.118235 0.000000
vt  0.448398 -0.649739 0.000000
vt  0.082956 -0.728969 0.000000
vt  1.431990 -1.310494 0.000000
vt  1.414323 -1.081048 0.000000
vt  0.406272 -0.474693 0.000000
vt  0.116599 -0.596592 0.000000
vt  0.115511 -0.456396 0.000000
vt  1.685561 -1.352161 0.000000
vt  1.761671 -1.479284 0.000000
vt  1.483583 -1.478796 0.000000
vt  1.449291 -1.364468 0.000000
vt  -0.616132 0.488436 0.000000
vt  -1.059648 0.555104 0.000000
vt  -1.063967 0.747150 0.000000
vt  -0.709355 0.716869 0.000000
vt  -1.495716 0.533339 0.000000
vt  -1.579329 0.667672 0.000000
vt  0.913356 0.928587 0.000000
vt  0.759847 1.017539 0.000000
vt  1.760264 0.954729 0.000000
vt  2.501943 -1.306127 0.000000
vt  1.795004 -1.507870 0.000000
vt  2.016945 1.541267 0.000000
vt  1.992526 1.378897 0.000000
vt  1.595410 1.288676 0.000000
vt  1.485976 1.539448 0.000000
vt  -0.952678 1.418523 0.000000
vt  -1.579329 1.413581 0.000000
vt  -1.120794 -1.457894 0.000000
vt  -1.455579 -1.124244 0.000000
vt  -0.913411 -0.432901 0.000000
vt  -1.194302 -0.460938 0.000000
vt  0.260583 2.544849 0.000000
vt  -0.178215 2.469232 0.000000
vt  -0.209900 2.544080 0.000000
vt  -0.481211 2.559312 0.000000
vt  -0.484384 2.452355 0.000000
vt  0.054789 2.295666 0.000000
vt  0.651173 2.295666 0.000000
vt  0.338126 -0.827780 0.000000
vt  0.776841 -0.859775 0.000000
vt  0.082956 -1.507870 0.000000
vt  1.837073 2.436531 0.000000
vt  1.485976 2.540264 0.000000
vt  2.109712 2.540264 0.000000
vt  2.127223 2.454569 0.000000
vt  1.752967 0.731584 0.000000
vt  1.754210 0.829777 0.000000
vt  2.208858 0.829777 0.000000
vt  2.201090 0.717882 0.000000
vt  -0.715298 0.124923 0.000000
vt  -0.459625 -0.301154 0.000000
vt  -0.872719 -0.195950 0.000000
vt  -1.165485 0.154223 0.000000
vt  -1.386646 -0.012038 0.000000
vt  -1.579329 0.294126 0.000000
vt  1.060242 0.600438 0.000000
vt  0.759847 0.829777 0.000000
vt  1.836999 -1.118235 0.000000
vt  1.976596 -0.969153 0.000000
vt  2.485003 -0.969153 0.000000
vt  -0.208857 0.356688 0.000000
vt  -0.425361 2.209971 0.000000
vt  -0.484384 2.295666 0.000000
vt  1.414323 -1.081048 0.000000
vt  1.396000 -0.969153 0.000000
vt  -0.484384 0.536665 0.000000
vt  -0.458837 0.907384 0.000000
# 211 texture vertices

vn  -0.710967 0.687385 0.148413
vn  -0.121668 0.863381 0.489664
vn  -0.627458 0.576893 0.522963
vn  0.074845 -0.826674 0.557680
vn  -0.387098 -0.821057 -0.419548
vn  0.199220 -0.948883 -0.244810
vn  0.837398 -0.445680 0.316441
vn  0.713117 -0.310587 0.628490
vn  0.373330 0.524788 0.764998
vn  0.715457 0.201984 0.668822
vn  0.195406 0.678630 0.708010
vn  -0.738367 0.395785 0.546048
vn  -0.952680 0.002885 -0.303960
vn  -0.886381 -0.414911 -0.205375
vn  -0.868490 -0.197088 0.454842
vn  -0.553583 -0.819401 -0.148755
vn  -0.689176 -0.416714 0.592778
vn  0.636450 -0.405631 0.656045
vn  0.498857 0.417574 0.759456
vn  0.822550 -0.355199 -0.444123
vn  0.536198 -0.697568 -0.475279
vn  -0.107855 -0.992762 -0.052836
vn  -0.162534 -0.609596 0.775871
vn  -0.219484 -0.195487 0.955830
vn  0.308527 0.418020 0.854442
vn  -0.755732 -0.455356 -0.470659
vn  -0.476376 0.399015 0.783488
vn  0.293283 0.391660 0.872117
vn  0.101251 0.626710 0.772646
vn  -0.270409 0.065209 0.960535
vn  -0.523084 0.105652 0.845707
vn  -0.924979 -0.206167 -0.319231
vn  -0.717469 -0.664335 -0.209516
vn  -0.534068 -0.844610 -0.037490
vn  0.423397 -0.896884 0.127803
vn  0.622681 -0.195604 0.757632
vn  0.729994 0.371471 0.573688
vn  0.521745 0.760698 0.386160
vn  0.980052 0.152626 -0.127290
vn  -0.073871 -0.865106 0.496120
vn  0.786992 -0.612892 -0.070760
vn  -0.558438 -0.827228 -0.061969
vn  0.647842 0.061693 0.759272
vn  0.656225 -0.409123 0.634024
vn  0.819956 -0.477920 0.315064
vn  0.693526 0.249020 0.676025
vn  0.651274 0.527395 0.545615
vn  0.059003 -0.997672 -0.034197
vn  0.993742 -0.043865 0.102726
vn  0.567149 -0.763041 0.310017
vn  -0.517482 -0.729278 0.447622
vn  0.018907 -0.756545 0.653669
vn  -0.993864 -0.083453 0.072589
vn  -0.826171 -0.517513 0.222758
vn  -0.755333 -0.583785 -0.297770
vn  -0.323243 0.928139 0.184584
vn  0.381321 0.862888 0.331690
vn  -0.613717 -0.096071 0.783659
vn  -0.805870 0.406638 0.430372
vn  0.990681 0.136205 -0.000510
vn  0.871277 -0.455348 0.183126
vn  -0.101268 -0.399617 0.911071
vn  -0.350244 -0.201723 0.914679
vn  0.256827 -0.821867 0.508502
# 64 vertex normals

g box52
usemtl moon_boulder_01
s 1
f 1/1/1 3/3/3 2/2/2
f 4/4/4 6/6/6 5/5/5
f 7/7/7 4/4/4 8/8/8
f 4/4/4 7/7/7 6/6/6
f 9/9/9 8/8/8 10/10/10
f 8/8/8 9/9/9 7/7/7
f 10/11/10 11/13/11 9/12/9
f 3/14/3 13/16/13 12/15/12
f 14/17/14 12/15/12 13/16/13
f 12/15/12 14/17/14 15/18/15
f 16/19/16 15/18/15 14/17/14
f 15/18/15 16/19/16 17/20/17
f 18/21/18 20/23/20 19/22/19
f 20/24/20 18/26/18 21/25/21
f 9/27/9 19/29/19 20/28/20
f 18/30/18 22/32/22 21/31/21
f 22/32/22 18/30/18 23/33/23
f 24/34/24 22/32/22 23/33/23
f 23/35/23 18/37/18 24/36/24
f 24/36/24 18/37/18 25/38/25
f 25/38/25 18/37/18 19/39/19
f 7/40/7 20/42/20 21/41/21
f 5/43/5 14/45/14 26/44/26
f 14/45/14 5/43/5 16/46/16
f 26/47/26 13/49/13 3/48/3
f 13/49/13 26/47/26 14/50/14
f 7/51/7 9/53/9 20/52/20
f 6/54/6 16/56/16 5/55/5
f 16/56/16 6/54/6 22/57/22
f 27/58/27 12/15/12 15/18/15
f 28/59/28 25/61/25 29/60/29
f 24/62/24 28/64/28 30/63/30
f 28/64/28 24/62/24 25/65/25
f 17/66/17 30/63/30 31/67/31
f 30/63/30 17/66/17 24/62/24
f 15/18/15 31/68/31 27/58/27
f 31/68/31 15/18/15 17/20/17
f 17/69/17 22/32/22 24/34/24
f 22/70/22 17/72/17 16/71/16
f 30/73/30 28/75/28 31/74/31
f 27/76/27 28/75/28 29/77/29
f 28/75/28 27/76/27 31/74/31
f 29/78/29 12/80/12 27/79/27
f 11/81/11 2/83/2 3/82/3
f 32/84/32 26/86/26 3/85/3
f 32/87/32 3/89/3 1/88/1
f 33/90/33 26/92/26 32/91/32
f 5/93/5 33/95/33 34/94/34
f 33/96/33 5/98/5 26/97/26
f 4/99/4 34/101/34 35/100/35
f 34/94/34 4/102/4 5/93/5
f 8/103/8 35/105/35 36/104/36
f 35/106/35 8/108/8 4/107/4
f 10/109/10 36/104/36 37/110/37
f 36/104/36 10/109/10 8/103/8
f 11/111/11 37/113/37 38/112/38
f 37/113/37 11/111/11 10/114/10
f 2/115/2 11/117/11 38/116/38
f 38/118/38 37/120/37 39/119/39
f 40/121/40 36/123/36 35/122/35
f 36/123/36 40/121/40 41/124/41
f 34/125/34 40/121/40 35/122/35
f 40/126/40 34/128/34 42/127/42
f 43/129/43 45/131/45 44/130/44
f 45/131/45 43/129/43 46/132/46
f 47/133/47 46/132/46 43/129/43
f 46/132/46 47/133/47 38/134/38
f 45/131/45 48/135/48 44/130/44
f 44/136/44 49/138/49 43/137/43
f 49/138/49 44/136/44 50/139/50
f 49/138/49 47/140/47 43/137/43
f 51/141/51 52/143/52 48/142/48
f 38/144/38 47/145/47 2/115/2
f 48/142/48 50/147/50 44/146/44
f 50/147/50 48/142/48 52/143/52
f 1/148/1 53/150/53 32/149/32
f 39/151/39 45/153/45 46/152/46
f 45/153/45 39/151/39 41/154/41
f 51/155/51 55/157/55 54/156/54
f 55/157/55 51/155/51 42/158/42
f 54/156/54 32/160/32 53/159/53
f 32/160/32 54/156/54 55/157/55
f 46/161/46 38/163/38 39/162/39
f 48/142/48 42/164/42 51/141/51
f 42/164/42 48/142/48 40/165/40
f 41/166/41 48/168/48 45/167/45
f 48/168/48 41/166/41 40/169/40
f 21/41/21 6/170/6 7/40/7
f 6/170/6 21/41/21 22/171/22
f 12/172/12 9/174/9 3/173/3
f 9/174/9 12/172/12 29/77/29
f 19/39/19 29/77/29 25/38/25
f 29/77/29 19/39/19 9/174/9
f 9/174/9 11/175/11 3/173/3
f 32/176/32 55/178/55 33/177/33
f 42/179/42 33/177/33 55/178/55
f 33/177/33 42/179/42 34/180/34
f 2/2/2 57/182/57 56/181/56
f 57/183/57 2/185/2 47/184/47
f 53/186/53 59/188/59 58/187/58
f 59/188/59 53/186/53 1/189/1
f 49/190/49 61/192/61 60/191/60
f 61/192/61 49/190/49 50/193/50
f 51/194/51 63/196/63 62/195/62
f 63/196/63 51/194/51 54/197/54
f 54/197/54 58/198/58 63/196/63
f 58/198/58 54/197/54 53/199/53
f 47/200/47 60/191/60 57/201/57
f 60/191/60 47/200/47 49/190/49
f 52/202/52 62/204/62 64/203/64
f 62/195/62 52/205/52 51/194/51
f 1/206/1 56/181/56 59/207/59
f 56/181/56 1/206/1 2/2/2
f 50/208/50 64/203/64 61/209/61
f 64/203/64 50/208/50 52/202/52
f 36/123/36 39/211/39 37/210/37
f 39/211/39 36/123/36 41/124/41
# 117 faces

g
