# Max2Obj Version 4.0 Mar 10th, 2001
#
mtllib ./oil_01.mtl
g
# object Cylinder01 to come ...
#
v  0.129787 0.399444 1.250000
v  0.339787 0.246870 1.250000
v  0.420000 0.000000 1.250000
v  -0.339787 0.246870 1.250000
v  -0.129787 0.399444 1.250000
v  -0.339787 -0.246870 1.250000
v  -0.420000 -0.000000 1.250000
v  0.129787 -0.399444 1.250000
v  -0.129787 -0.399444 1.250000
v  0.339787 -0.246870 1.250000
v  0.019479 -0.428550 0.658738
v  0.024944 -0.400300 0.668204
v  0.049888 -0.400300 0.625000
v  0.038957 -0.428550 0.625000
v  -0.019479 -0.428550 0.658738
v  -0.024944 -0.400300 0.668204
v  -0.038957 -0.428550 0.625000
v  -0.049888 -0.400300 0.625000
v  -0.019479 -0.428550 0.591262
v  -0.024944 -0.400300 0.581796
v  0.019479 -0.428550 0.591262
v  0.024944 -0.400300 0.581796
v  -0.339787 -0.246870 0.000000
v  -0.129787 -0.399444 0.000000
v  0.129787 -0.399444 0.000000
v  -0.339787 0.246870 0.000000
v  -0.420000 -0.000000 0.000000
v  0.129787 0.399444 0.000000
v  -0.129787 0.399444 0.000000
v  0.420000 0.000000 0.000000
v  0.339787 0.246870 0.000000
v  0.339787 -0.246870 0.000000
# 32 vertices

vt  0.825888 0.999500 0.000000
vt  0.951515 0.904235 0.000000
vt  0.999500 0.750092 0.000000
vt  0.544978 0.904235 0.000000
vt  0.670605 0.999501 0.000000
vt  0.544978 0.595950 0.000000
vt  0.496993 0.750092 0.000000
vt  0.825888 0.500684 0.000000
vt  0.670605 0.500684 0.000000
vt  0.951515 0.595950 0.000000
vt  0.143438 0.525652 0.000000
vt  0.147957 0.533511 0.000000
vt  0.168579 0.497645 0.000000
vt  0.159543 0.497645 0.000000
vt  0.111230 0.525652 0.000000
vt  0.106712 0.533511 0.000000
vt  0.095126 0.497645 0.000000
vt  0.086089 0.497645 0.000000
vt  0.111230 0.469638 0.000000
vt  0.106712 0.461780 0.000000
vt  0.143438 0.469638 0.000000
vt  0.147957 0.461780 0.000000
vt  0.106712 0.533511 0.000000
vt  0.086089 0.497645 0.000000
vt  0.106712 0.461780 0.000000
vt  0.168579 0.497645 0.000000
vt  0.147957 0.533511 0.000000
vt  0.147957 0.461780 0.000000
vt  0.095126 0.497645 0.000000
vt  0.111230 0.525652 0.000000
vt  0.143438 0.525652 0.000000
vt  0.143438 0.469638 0.000000
vt  0.111230 0.469638 0.000000
vt  0.159543 0.497645 0.000000
vt  0.546647 0.095765 0.000000
vt  0.671813 0.000500 0.000000
vt  0.826526 0.000500 0.000000
vt  0.546647 0.404050 0.000000
vt  0.498838 0.249908 0.000000
vt  0.826526 0.499316 0.000000
vt  0.671813 0.499316 0.000000
vt  0.999501 0.249908 0.000000
vt  0.951692 0.404050 0.000000
vt  0.951692 0.095765 0.000000
vt  0.500000 1.000000 0.000000
vt  0.500000 0.000000 0.000000
vt  0.249169 0.000000 0.000000
vt  0.249169 1.000000 0.000000
vt  0.500000 1.000000 0.000000
vt  0.500000 0.000000 0.000000
vt  0.249169 0.000000 0.000000
vt  0.249169 1.000000 0.000000
vt  0.500000 1.000000 0.000000
vt  0.500000 0.000000 0.000000
vt  0.249169 0.000000 0.000000
vt  0.249169 1.000000 0.000000
vt  0.500000 1.000000 0.000000
vt  0.500000 0.000000 0.000000
vt  0.249169 0.000000 0.000000
vt  0.249169 1.000000 0.000000
vt  0.500000 1.000000 0.000000
vt  0.500000 0.000000 0.000000
vt  0.249169 0.000000 0.000000
vt  0.249169 1.000000 0.000000
vt  0.500000 1.000000 0.000000
vt  0.500000 0.000000 0.000000
vt  0.249169 0.000000 0.000000
vt  0.249169 1.000000 0.000000
vt  0.500000 1.000000 0.000000
vt  0.500000 0.000000 0.000000
vt  0.249169 0.000000 0.000000
vt  0.249169 1.000000 0.000000
vt  0.250831 1.000000 0.000000
vt  0.250831 0.000000 0.000000
vt  0.000000 0.000000 0.000000
vt  0.000000 1.000000 0.000000
vt  0.500000 1.000000 0.000000
vt  0.500000 0.000000 0.000000
vt  0.249169 0.000000 0.000000
vt  0.249169 1.000000 0.000000
vt  0.500000 1.000000 0.000000
vt  0.500000 0.000000 0.000000
vt  0.249169 0.000000 0.000000
vt  0.249169 1.000000 0.000000
# 84 texture vertices

vn  0.238791 0.531795 0.812510
vn  0.819291 0.469565 0.329046
vn  0.687240 -0.074433 0.722607
vn  -0.431977 0.391437 0.812510
vn  -0.193408 0.924295 0.329046
vn  -0.599739 -0.343732 0.722607
vn  -0.938824 0.101681 0.329046
vn  0.101956 -0.487247 0.867292
vn  -0.386817 -0.861453 0.329046
vn  0.699758 -0.634088 0.329046
vn  0.350774 -0.844334 0.405039
vn  0.327270 0.018679 0.944746
vn  0.760854 0.632186 0.146427
vn  0.774837 -0.614322 -0.149117
vn  -0.258279 -0.614322 0.745587
vn  -0.507236 0.632186 0.585706
vn  -0.526162 -0.844334 0.101260
vn  -0.981809 0.018679 -0.188949
vn  -0.516558 -0.614322 -0.596470
vn  -0.253618 0.632186 -0.732133
vn  0.175387 -0.844334 -0.506299
vn  0.654540 0.018679 -0.755797
vn  -0.431977 -0.391437 -0.812510
vn  -0.193408 -0.924295 -0.329046
vn  0.283159 -0.630603 -0.722607
vn  -0.505767 0.289873 -0.812510
vn  -0.938824 -0.101681 -0.329046
vn  0.141579 0.676605 -0.722607
vn  -0.386817 0.861453 -0.329046
vn  0.494906 0.053602 -0.867292
vn  0.699758 0.634088 -0.329046
vn  0.819291 -0.469565 -0.329046
# 32 vertex normals

g Cylinder01
usemtl dressing_oildrum_01
s 1
f 1/1/1 3/3/3 2/2/2
f 4/4/4 1/1/1 5/5/5
f 6/6/6 4/4/4 7/7/7
f 8/8/8 6/6/6 9/9/9
f 8/8/8 4/4/4 6/6/6
f 8/8/8 1/1/1 4/4/4
f 8/8/8 3/3/3 1/1/1
f 8/8/8 10/10/10 3/3/3
f 11/11/11 13/13/13 12/12/12
f 13/13/13 11/11/11 14/14/14
f 15/15/15 12/12/12 16/16/16
f 12/12/12 15/15/15 11/11/11
f 17/17/17 16/16/16 18/18/18
f 16/16/16 17/17/17 15/15/15
f 19/19/19 18/18/18 20/20/20
f 18/18/18 19/19/19 17/17/17
f 21/21/21 20/20/20 22/22/22
f 20/20/20 21/21/21 19/19/19
f 14/14/14 22/22/22 13/13/13
f 22/22/22 14/14/14 21/21/21
f 16/23/16 20/25/20 18/24/18
f 13/26/13 16/23/16 12/27/12
f 13/26/13 20/25/20 16/23/16
f 13/26/13 22/28/22 20/25/20
f 17/29/17 11/31/11 15/30/15
f 21/32/21 17/29/17 19/33/19
f 21/32/21 11/31/11 17/29/17
f 21/32/21 14/34/14 11/31/11
f 23/35/23 25/37/25 24/36/24
f 26/38/26 23/35/23 27/39/27
f 28/40/28 26/38/26 29/41/29
f 30/42/30 28/40/28 31/43/31
f 30/42/30 26/38/26 28/40/28
f 30/42/30 23/35/23 26/38/26
f 30/42/30 25/37/25 23/35/23
f 30/42/30 32/44/32 25/37/25
f 2/45/2 30/47/30 31/46/31
f 30/47/30 2/45/2 3/48/3
f 1/49/1 31/51/31 28/50/28
f 31/51/31 1/49/1 2/52/2
f 5/53/5 28/55/28 29/54/29
f 28/55/28 5/53/5 1/56/1
f 4/57/4 29/59/29 26/58/26
f 29/59/29 4/57/4 5/60/5
f 7/61/7 26/63/26 27/62/27
f 26/63/26 7/61/7 4/64/4
f 6/65/6 27/67/27 23/66/23
f 27/67/27 6/65/6 7/68/7
f 9/69/9 23/71/23 24/70/24
f 23/71/23 9/69/9 6/72/6
f 8/73/8 24/75/24 25/74/25
f 24/75/24 8/73/8 9/76/9
f 10/77/10 25/79/25 32/78/32
f 25/79/25 10/77/10 8/80/8
f 3/81/3 32/83/32 30/82/30
f 32/83/32 3/81/3 10/84/10
# 56 faces

g
