# Max2Obj Version 4.0 Mar 10th, 2001
#
mtllib ./eye_wal_20.mtl
g
# object Box01 to come ...
#
v  0.633690 -0.033561 3.459659
v  0.339253 0.043725 1.385474
v  0.342530 -0.884705 1.465207
v  0.324536 -0.633939 3.431262
v  0.151119 0.442905 2.636286
v  0.244228 0.868472 0.936883
v  1.012639 1.075831 5.140155
v  1.056890 0.915678 5.577041
v  0.728766 1.101171 4.711695
v  -0.423088 0.860068 1.694126
v  -0.467414 0.906449 0.000000
v  0.196998 0.906449 0.000000
v  -0.793568 0.490408 1.267224
v  -1.131826 0.906449 0.000000
v  -0.379435 0.817395 3.035312
v  -0.791696 0.668098 3.575617
v  0.578993 1.538602 5.685737
v  0.331017 1.485875 5.590636
v  -1.180246 0.069720 1.638839
v  -1.131826 0.021626 -0.000000
v  -1.099703 -1.298134 2.162149
v  -1.131826 -0.863197 -0.000000
v  -0.938000 0.108862 3.541175
v  -0.625257 -0.549302 4.721408
v  0.147142 1.057485 5.913153
v  0.366126 0.686115 6.500697
v  -0.467414 0.021626 -0.000000
v  -0.467414 -0.863197 -0.000000
v  0.196998 0.021626 -0.000000
v  0.196998 -0.863197 -0.000000
v  1.479951 2.374704 6.943104
v  0.634722 0.565616 6.039648
v  -0.386913 -1.067387 1.602532
v  -0.139548 -0.978682 4.502383
# 34 vertices

vt  0.501711 0.344460 0.000000
vt  0.800153 0.365481 0.000000
vt  0.788681 0.112951 0.000000
vt  0.788681 0.112951 0.000000
vt  0.505797 0.181159 0.000000
vt  0.501711 0.344460 0.000000
vt  0.620181 0.474057 0.000000
vt  0.864698 0.589810 0.000000
vt  0.800153 0.365481 0.000000
vt  0.800153 0.365481 0.000000
vt  0.501711 0.344460 0.000000
vt  0.620181 0.474057 0.000000
vt  0.259915 0.646211 0.000000
vt  0.501711 0.344460 0.000000
vt  0.505797 0.181159 0.000000
vt  0.505797 0.181159 0.000000
vt  0.197054 0.602650 0.000000
vt  0.259915 0.646211 0.000000
vt  0.321563 0.653103 0.000000
vt  0.620181 0.474057 0.000000
vt  0.501711 0.344460 0.000000
vt  0.501711 0.344460 0.000000
vt  0.259915 0.646211 0.000000
vt  0.321563 0.653103 0.000000
vt  0.755743 0.715160 0.000000
vt  0.999500 0.731806 0.000000
vt  0.999500 0.482295 0.000000
vt  0.999500 0.482295 0.000000
vt  0.864698 0.464558 0.000000
vt  0.755743 0.715160 0.000000
vt  0.817167 0.854289 0.000000
vt  0.999500 0.981317 0.000000
vt  0.999500 0.731806 0.000000
vt  0.000500 0.600139 0.000000
vt  0.244257 0.587524 0.000000
vt  0.182833 0.486978 0.000000
vt  0.562768 0.698767 0.000000
vt  0.755743 0.715160 0.000000
vt  0.864698 0.464558 0.000000
vt  0.864698 0.589810 0.000000
vt  0.620181 0.474057 0.000000
vt  0.562768 0.575917 0.000000
vt  0.514973 0.535309 0.000000
vt  0.182833 0.486978 0.000000
vt  0.244257 0.587524 0.000000
vt  0.755743 0.715160 0.000000
vt  0.562768 0.698767 0.000000
vt  0.485027 0.853586 0.000000
vt  0.181414 0.338842 0.000000
vt  0.562768 0.698767 0.000000
vt  0.620181 0.499524 0.000000
vt  0.620181 0.499524 0.000000
vt  0.321563 0.282597 0.000000
vt  0.181414 0.338842 0.000000
vt  0.195098 0.431966 0.000000
vt  0.485027 0.853586 0.000000
vt  0.562768 0.698767 0.000000
vt  0.562768 0.698767 0.000000
vt  0.181414 0.338842 0.000000
vt  0.195098 0.431966 0.000000
vt  0.236302 0.372552 0.000000
vt  0.000500 0.359470 0.000000
vt  0.000500 0.600140 0.000000
vt  0.999500 0.981317 0.000000
vt  0.817167 0.854289 0.000000
vt  0.763698 0.999501 0.000000
vt  0.311598 0.000500 0.000000
vt  0.000500 0.118801 0.000000
vt  0.000500 0.359470 0.000000
vt  0.000500 0.359470 0.000000
vt  0.236302 0.372552 0.000000
vt  0.311598 0.000500 0.000000
vt  0.510018 0.383198 0.000000
vt  0.236302 0.372552 0.000000
vt  0.182833 0.486978 0.000000
vt  0.182833 0.486978 0.000000
vt  0.514973 0.535309 0.000000
vt  0.510018 0.383198 0.000000
vt  0.679834 0.204180 0.000000
vt  0.311598 0.000500 0.000000
vt  0.236302 0.372552 0.000000
vt  0.236302 0.372552 0.000000
vt  0.510018 0.383198 0.000000
vt  0.679834 0.204180 0.000000
vt  0.851307 0.641221 0.000000
vt  0.510018 0.383198 0.000000
vt  0.514973 0.535309 0.000000
vt  0.514973 0.535309 0.000000
vt  0.804902 0.757742 0.000000
vt  0.851307 0.641221 0.000000
vt  0.935845 0.540209 0.000000
vt  0.679834 0.204180 0.000000
vt  0.510018 0.383198 0.000000
vt  0.510018 0.383198 0.000000
vt  0.851307 0.641221 0.000000
vt  0.935845 0.540209 0.000000
vt  0.640530 0.731806 0.000000
vt  0.640530 0.981317 0.000000
vt  0.881199 0.981317 0.000000
vt  0.881199 0.981317 0.000000
vt  0.881199 0.731806 0.000000
vt  0.640530 0.731806 0.000000
vt  0.640530 0.482295 0.000000
vt  0.640530 0.731806 0.000000
vt  0.881199 0.731806 0.000000
vt  0.881199 0.731806 0.000000
vt  0.881199 0.482295 0.000000
vt  0.640530 0.482295 0.000000
vt  0.399861 0.731806 0.000000
vt  0.399860 0.981317 0.000000
vt  0.640530 0.981317 0.000000
vt  0.640530 0.981317 0.000000
vt  0.640530 0.731806 0.000000
vt  0.399861 0.731806 0.000000
vt  0.399861 0.482295 0.000000
vt  0.399861 0.731806 0.000000
vt  0.640530 0.731806 0.000000
vt  0.640530 0.731806 0.000000
vt  0.640530 0.482295 0.000000
vt  0.399861 0.482295 0.000000
vt  0.000500 0.999500 0.000000
vt  0.130492 0.507434 0.000000
vt  0.064155 0.540209 0.000000
vt  0.935845 0.540209 0.000000
vt  0.851307 0.641221 0.000000
vt  0.999501 0.999500 0.000000
vt  0.259915 0.646211 0.000000
vt  0.197054 0.602650 0.000000
vt  0.000500 0.999500 0.000000
vt  0.130492 0.507434 0.000000
vt  0.000500 0.999500 0.000000
vt  0.197054 0.602650 0.000000
vt  0.818586 0.772083 0.000000
vt  0.999501 0.999500 0.000000
vt  0.851307 0.641221 0.000000
vt  0.641221 0.501018 0.000000
vt  0.757742 0.431966 0.000000
vt  0.772083 0.338842 0.000000
vt  0.321563 0.653103 0.000000
vt  0.259915 0.646211 0.000000
vt  0.000500 0.999500 0.000000
vt  0.000500 0.000499 0.000000
vt  0.181414 0.338842 0.000000
vt  0.321563 0.282597 0.000000
vt  0.231078 0.701575 0.000000
vt  0.000500 0.731806 0.000000
vt  0.000500 0.981317 0.000000
vt  0.000500 0.981317 0.000000
vt  0.311598 0.969254 0.000000
vt  0.231078 0.701575 0.000000
vt  0.211319 0.427643 0.000000
vt  0.000500 0.482295 0.000000
vt  0.000500 0.731806 0.000000
vt  0.000500 0.731806 0.000000
vt  0.231078 0.701575 0.000000
vt  0.211319 0.427643 0.000000
vt  0.648320 0.608681 0.000000
vt  0.231078 0.701575 0.000000
vt  0.311598 0.969254 0.000000
vt  0.311598 0.969254 0.000000
vt  0.679834 0.791082 0.000000
vt  0.648320 0.608681 0.000000
vt  0.494203 0.434400 0.000000
vt  0.211319 0.427643 0.000000
vt  0.231078 0.701575 0.000000
vt  0.231078 0.701575 0.000000
vt  0.648320 0.608681 0.000000
vt  0.494203 0.434400 0.000000
vt  0.507434 0.317914 0.000000
vt  0.087389 0.608681 0.000000
vt  0.204180 0.791082 0.000000
vt  0.679834 0.791082 0.000000
vt  0.935845 0.418782 0.000000
vt  0.869508 0.317914 0.000000
vt  0.197054 0.602650 0.000000
vt  0.505797 0.181159 0.000000
vt  0.351680 0.087389 0.000000
vt  0.351680 0.087389 0.000000
vt  0.130492 0.507434 0.000000
vt  0.197054 0.602650 0.000000
vt  0.800153 0.365481 0.000000
vt  0.999500 0.359470 0.000000
vt  0.999500 0.118801 0.000000
vt  0.999500 0.118801 0.000000
vt  0.788681 0.112951 0.000000
vt  0.800153 0.365481 0.000000
vt  0.864698 0.589810 0.000000
vt  0.999500 0.600139 0.000000
vt  0.999500 0.359470 0.000000
vt  0.999500 0.359470 0.000000
vt  0.800153 0.365481 0.000000
vt  0.864698 0.589810 0.000000
# 192 texture vertices

vn  0.982178 0.088848 -0.165625
vn  0.986576 0.145030 -0.075056
vn  0.701711 -0.711262 -0.041342
vn  0.777944 -0.626714 0.045076
vn  0.729729 0.665700 -0.156010
vn  0.781978 0.621449 0.048081
vn  0.964869 0.010033 -0.262539
vn  0.896550 -0.435800 0.079223
vn  0.565544 0.671483 -0.478822
vn  -0.291464 0.956348 0.021123
vn  -0.191982 0.695548 -0.692356
vn  0.343590 0.666435 -0.661672
vn  -0.646531 0.751016 0.134066
vn  -0.642752 0.752530 -0.143414
vn  0.029408 0.996863 -0.073480
vn  -0.752533 0.653825 0.078781
vn  -0.166000 0.977688 -0.128722
vn  -0.499526 0.851733 0.158190
vn  -0.964653 0.227038 0.133785
vn  -0.701675 -0.016207 -0.712313
vn  -0.740479 -0.668141 0.072657
vn  -0.267709 -0.623500 -0.734561
vn  -0.949762 0.219277 0.223318
vn  -0.725760 -0.499140 0.473425
vn  -0.803985 0.449326 0.389504
vn  -0.573243 -0.265629 0.775135
vn  0.000000 0.000000 -1.000000
vn  0.049086 -0.669552 -0.741142
vn  0.675959 0.013229 -0.736821
vn  0.783669 -0.395752 -0.478793
vn  0.785151 0.588751 0.192120
vn  0.508255 -0.705432 0.494007
vn  0.257322 -0.964452 -0.060147
vn  0.339305 -0.893890 0.292974
# 34 vertex normals

g Box01
usemtl Материал__2
s 1
f 1/1/1 3/3/3 2/2/2
f 3/4/3 1/6/1 4/5/4
f 5/7/5 2/9/2 6/8/6
f 2/10/2 5/12/5 1/11/1
f 7/13/7 4/15/4 1/14/1
s 5
f 4/16/4 7/18/7 8/17/8
s 1
f 9/19/9 1/21/1 5/20/5
f 1/22/1 9/24/9 7/23/7
f 10/25/10 12/27/12 11/26/11
f 12/28/12 10/30/10 6/29/6
f 13/31/13 11/33/11 14/32/14
f 11/34/11 13/36/13 10/35/10
f 15/37/15 6/39/6 10/38/10
f 6/40/6 15/42/15 5/41/5
f 16/43/16 10/45/10 13/44/13
f 10/46/10 16/48/16 15/47/15
f 17/49/17 5/51/5 15/50/15
f 5/52/5 17/54/17 9/53/9
f 18/55/18 15/57/15 16/56/16
f 15/58/15 18/60/18 17/59/17
f 19/61/19 14/63/14 20/62/20
f 14/64/14 19/66/19 13/65/13
f 21/67/21 20/69/20 22/68/22
f 20/70/20 21/72/21 19/71/19
f 23/73/23 13/75/13 19/74/19
f 13/76/13 23/78/23 16/77/16
f 24/79/24 19/81/19 21/80/21
f 19/82/19 24/84/24 23/83/23
s 3
f 25/85/25 16/87/16 23/86/23
f 16/88/16 25/90/25 18/89/18
f 26/91/26 23/93/23 24/92/24
f 23/94/23 26/96/26 25/95/25
s 1
f 27/97/27 22/99/22 20/98/20
f 22/100/22 27/102/27 28/101/28
f 29/103/29 28/105/28 27/104/27
f 28/106/28 29/108/29 30/107/30
f 11/109/11 20/111/20 14/110/14
f 20/112/20 11/114/11 27/113/27
f 12/115/12 27/117/27 11/116/11
f 27/118/27 12/120/12 29/119/29
s 7
f 31/121/31 26/123/26 32/122/32
s 6
f 26/124/26 31/126/31 25/125/25
s 5
f 7/127/7 31/129/31 8/128/8
s 4
f 32/130/32 8/132/8 31/131/31
s 3
f 17/133/17 25/135/25 31/134/31
f 25/136/25 17/138/17 18/137/18
s 7
f 9/139/9 31/141/31 7/140/7
f 31/142/31 9/144/9 17/143/17
s 1
f 33/145/33 22/147/22 28/146/28
f 22/148/22 33/150/33 21/149/21
f 3/151/3 28/153/28 30/152/30
f 28/154/28 3/156/3 33/155/33
f 34/157/34 21/159/21 33/158/33
f 21/160/21 34/162/34 24/161/24
f 4/163/4 33/165/33 3/164/3
f 33/166/33 4/168/4 34/167/34
s 5
f 32/169/32 24/171/24 34/170/34
s 7
f 24/172/24 32/174/32 26/173/26
s 5
f 8/175/8 34/177/34 4/176/4
f 34/178/34 8/180/8 32/179/32
s 1
f 2/181/2 30/183/30 29/182/29
f 30/184/30 2/186/2 3/185/3
f 6/187/6 29/189/29 12/188/12
f 29/190/29 6/192/6 2/191/2
# 64 faces

g
